<?xml version="1.0" encoding="UTF-8" standalone="no"?>
<!-- Created with Inkscape (http://www.inkscape.org/) -->

<svg
   xmlns:osb="http://www.openswatchbook.org/uri/2009/osb"
   xmlns:dc="http://purl.org/dc/elements/1.1/"
   xmlns:cc="http://creativecommons.org/ns#"
   xmlns:rdf="http://www.w3.org/1999/02/22-rdf-syntax-ns#"
   xmlns:svg="http://www.w3.org/2000/svg"
   xmlns="http://www.w3.org/2000/svg"
   xmlns:xlink="http://www.w3.org/1999/xlink"
   xmlns:sodipodi="http://sodipodi.sourceforge.net/DTD/sodipodi-0.dtd"
   xmlns:inkscape="http://www.inkscape.org/namespaces/inkscape"
   width="132.08mm"
   height="128.5mm"
   viewBox="0 0 132.08 128.5"
   version="1.1"
   id="svg4540"
   inkscape:version="0.92.4 (5da689c313, 2019-01-14)"
   sodipodi:docname="RainbowExpander.svg">
  <defs
     id="defs4534">
    <marker
       inkscape:isstock="true"
       style="overflow:visible"
       id="marker3381"
       refX="0"
       refY="0"
       orient="auto"
       inkscape:stockid="Arrow2Lend">
      <path
         transform="matrix(-1.1,0,0,-1.1,-1.1,0)"
         d="M 8.7185878,4.0337352 -2.2072895,0.01601326 8.7185884,-4.0017078 c -1.7454984,2.3720609 -1.7354408,5.6174519 -6e-7,8.035443 z"
         style="fill:#daff9e;fill-opacity:1;fill-rule:evenodd;stroke:#daff9e;stroke-width:0.625;stroke-linejoin:round;stroke-opacity:1"
         id="path3379"
         inkscape:connector-curvature="0" />
    </marker>
    <marker
       inkscape:isstock="true"
       style="overflow:visible"
       id="marker2321"
       refX="0"
       refY="0"
       orient="auto"
       inkscape:stockid="Arrow2Lend">
      <path
         transform="matrix(-1.1,0,0,-1.1,-1.1,0)"
         d="M 8.7185878,4.0337352 -2.2072895,0.01601326 8.7185884,-4.0017078 c -1.7454984,2.3720609 -1.7354408,5.6174519 -6e-7,8.035443 z"
         style="fill:#daff9e;fill-opacity:1;fill-rule:evenodd;stroke:#daff9e;stroke-width:0.625;stroke-linejoin:round;stroke-opacity:1"
         id="path2319"
         inkscape:connector-curvature="0" />
    </marker>
    <marker
       inkscape:stockid="Tail"
       orient="auto"
       refY="0"
       refX="0"
       id="marker1985"
       style="overflow:visible"
       inkscape:isstock="true">
      <g
         id="g1983"
         transform="scale(-1.2)"
         style="fill:#daff9e;fill-opacity:1;stroke:#daff9e;stroke-opacity:1">
        <path
           id="path1971"
           d="M -3.8048674,-3.9585227 0.54352094,0"
           style="fill:#daff9e;fill-opacity:1;fill-rule:evenodd;stroke:#daff9e;stroke-width:0.80000001;stroke-linecap:round;stroke-opacity:1"
           inkscape:connector-curvature="0" />
        <path
           id="path1973"
           d="M -1.2866832,-3.9585227 3.0617053,0"
           style="fill:#daff9e;fill-opacity:1;fill-rule:evenodd;stroke:#daff9e;stroke-width:0.80000001;stroke-linecap:round;stroke-opacity:1"
           inkscape:connector-curvature="0" />
        <path
           id="path1975"
           d="M 1.3053582,-3.9585227 5.6537466,0"
           style="fill:#daff9e;fill-opacity:1;fill-rule:evenodd;stroke:#daff9e;stroke-width:0.80000001;stroke-linecap:round;stroke-opacity:1"
           inkscape:connector-curvature="0" />
        <path
           id="path1977"
           d="M -3.8048674,4.1775838 0.54352094,0.21974226"
           style="fill:#daff9e;fill-opacity:1;fill-rule:evenodd;stroke:#daff9e;stroke-width:0.80000001;stroke-linecap:round;stroke-opacity:1"
           inkscape:connector-curvature="0" />
        <path
           id="path1979"
           d="M -1.2866832,4.1775838 3.0617053,0.21974226"
           style="fill:#daff9e;fill-opacity:1;fill-rule:evenodd;stroke:#daff9e;stroke-width:0.80000001;stroke-linecap:round;stroke-opacity:1"
           inkscape:connector-curvature="0" />
        <path
           id="path1981"
           d="M 1.3053582,4.1775838 5.6537466,0.21974226"
           style="fill:#daff9e;fill-opacity:1;fill-rule:evenodd;stroke:#daff9e;stroke-width:0.80000001;stroke-linecap:round;stroke-opacity:1"
           inkscape:connector-curvature="0" />
      </g>
    </marker>
    <marker
       inkscape:stockid="Arrow1Lstart"
       orient="auto"
       refY="0"
       refX="0"
       id="Arrow1Lstart"
       style="overflow:visible"
       inkscape:isstock="true">
      <path
         id="path1379"
         d="M 0,0 5,-5 -12.5,0 5,5 Z"
         style="fill:#daff9e;fill-opacity:1;fill-rule:evenodd;stroke:#daff9e;stroke-width:1.00000003pt;stroke-opacity:1"
         transform="matrix(0.8,0,0,0.8,10,0)"
         inkscape:connector-curvature="0" />
    </marker>
    <marker
       inkscape:stockid="Tail"
       orient="auto"
       refY="0"
       refX="0"
       id="marker1711"
       style="overflow:visible"
       inkscape:isstock="true">
      <g
         id="g1709"
         transform="scale(-1.2)"
         style="fill:#daff9e;fill-opacity:1;stroke:#daff9e;stroke-opacity:1">
        <path
           id="path1697"
           d="M -3.8048674,-3.9585227 0.54352094,0"
           style="fill:#daff9e;fill-opacity:1;fill-rule:evenodd;stroke:#daff9e;stroke-width:0.80000001;stroke-linecap:round;stroke-opacity:1"
           inkscape:connector-curvature="0" />
        <path
           id="path1699"
           d="M -1.2866832,-3.9585227 3.0617053,0"
           style="fill:#daff9e;fill-opacity:1;fill-rule:evenodd;stroke:#daff9e;stroke-width:0.80000001;stroke-linecap:round;stroke-opacity:1"
           inkscape:connector-curvature="0" />
        <path
           id="path1701"
           d="M 1.3053582,-3.9585227 5.6537466,0"
           style="fill:#daff9e;fill-opacity:1;fill-rule:evenodd;stroke:#daff9e;stroke-width:0.80000001;stroke-linecap:round;stroke-opacity:1"
           inkscape:connector-curvature="0" />
        <path
           id="path1703"
           d="M -3.8048674,4.1775838 0.54352094,0.21974226"
           style="fill:#daff9e;fill-opacity:1;fill-rule:evenodd;stroke:#daff9e;stroke-width:0.80000001;stroke-linecap:round;stroke-opacity:1"
           inkscape:connector-curvature="0" />
        <path
           id="path1705"
           d="M -1.2866832,4.1775838 3.0617053,0.21974226"
           style="fill:#daff9e;fill-opacity:1;fill-rule:evenodd;stroke:#daff9e;stroke-width:0.80000001;stroke-linecap:round;stroke-opacity:1"
           inkscape:connector-curvature="0" />
        <path
           id="path1707"
           d="M 1.3053582,4.1775838 5.6537466,0.21974226"
           style="fill:#daff9e;fill-opacity:1;fill-rule:evenodd;stroke:#daff9e;stroke-width:0.80000001;stroke-linecap:round;stroke-opacity:1"
           inkscape:connector-curvature="0" />
      </g>
    </marker>
    <marker
       inkscape:stockid="Tail"
       orient="auto"
       refY="0"
       refX="0"
       id="Tail"
       style="overflow:visible"
       inkscape:isstock="true">
      <g
         id="g1427"
         transform="scale(-1.2)"
         style="fill:#daff9e;fill-opacity:1;stroke:#daff9e;stroke-opacity:1">
        <path
           id="path1415"
           d="M -3.8048674,-3.9585227 0.54352094,0"
           style="fill:#daff9e;fill-opacity:1;fill-rule:evenodd;stroke:#daff9e;stroke-width:0.80000001;stroke-linecap:round;stroke-opacity:1"
           inkscape:connector-curvature="0" />
        <path
           id="path1417"
           d="M -1.2866832,-3.9585227 3.0617053,0"
           style="fill:#daff9e;fill-opacity:1;fill-rule:evenodd;stroke:#daff9e;stroke-width:0.80000001;stroke-linecap:round;stroke-opacity:1"
           inkscape:connector-curvature="0" />
        <path
           id="path1419"
           d="M 1.3053582,-3.9585227 5.6537466,0"
           style="fill:#daff9e;fill-opacity:1;fill-rule:evenodd;stroke:#daff9e;stroke-width:0.80000001;stroke-linecap:round;stroke-opacity:1"
           inkscape:connector-curvature="0" />
        <path
           id="path1421"
           d="M -3.8048674,4.1775838 0.54352094,0.21974226"
           style="fill:#daff9e;fill-opacity:1;fill-rule:evenodd;stroke:#daff9e;stroke-width:0.80000001;stroke-linecap:round;stroke-opacity:1"
           inkscape:connector-curvature="0" />
        <path
           id="path1423"
           d="M -1.2866832,4.1775838 3.0617053,0.21974226"
           style="fill:#daff9e;fill-opacity:1;fill-rule:evenodd;stroke:#daff9e;stroke-width:0.80000001;stroke-linecap:round;stroke-opacity:1"
           inkscape:connector-curvature="0" />
        <path
           id="path1425"
           d="M 1.3053582,4.1775838 5.6537466,0.21974226"
           style="fill:#daff9e;fill-opacity:1;fill-rule:evenodd;stroke:#daff9e;stroke-width:0.80000001;stroke-linecap:round;stroke-opacity:1"
           inkscape:connector-curvature="0" />
      </g>
    </marker>
    <linearGradient
       id="linearGradient6764"
       osb:paint="solid">
      <stop
         style="stop-color:#000000;stop-opacity:1;"
         offset="0"
         id="stop6762" />
    </linearGradient>
    <linearGradient
       inkscape:collect="always"
       xlink:href="#Dark"
       id="linearGradient1230"
       x1="-0.01175524"
       y1="264.38675"
       x2="734.98822"
       y2="264.38675"
       gradientUnits="userSpaceOnUse"
       gradientTransform="matrix(0.26458334,0,0,0.26458333,0.00311001,-19.6815)" />
    <linearGradient
       id="Dark"
       osb:paint="solid">
      <stop
         style="stop-color:#1e641e;stop-opacity:1;"
         offset="0"
         id="stop1226" />
    </linearGradient>
    <linearGradient
       id="linearGradient3050"
       osb:paint="solid">
      <stop
         style="stop-color:#daff9e;stop-opacity:1;"
         offset="0"
         id="stop3048" />
    </linearGradient>
    <linearGradient
       inkscape:collect="always"
       xlink:href="#linearGradient3050"
       id="linearGradient2337"
       gradientUnits="userSpaceOnUse"
       gradientTransform="matrix(0.26458333,0,0,0.26458333,0.00325402,169.04696)"
       x1="58.838619"
       y1="374.62354"
       x2="87.734451"
       y2="374.62354" />
  </defs>
  <sodipodi:namedview
     id="base"
     pagecolor="#ffffff"
     bordercolor="#666666"
     borderopacity="1.0"
     inkscape:pageopacity="0.0"
     inkscape:pageshadow="2"
     inkscape:zoom="1.6945686"
     inkscape:cx="227.26349"
     inkscape:cy="242.83466"
     inkscape:document-units="mm"
     inkscape:current-layer="layer1"
     showgrid="false"
     inkscape:window-width="1780"
     inkscape:window-height="1046"
     inkscape:window-x="129"
     inkscape:window-y="-11"
     inkscape:window-maximized="1"
     inkscape:snap-global="false" />
  <metadata
     id="metadata4537">
    <rdf:RDF>
      <cc:Work
         rdf:about="">
        <dc:format>image/svg+xml</dc:format>
        <dc:type
           rdf:resource="http://purl.org/dc/dcmitype/StillImage" />
        <dc:title></dc:title>
      </cc:Work>
    </rdf:RDF>
  </metadata>
  <g
     inkscape:groupmode="layer"
     id="layer2"
     inkscape:label="Background"
     style="display:inline"
     sodipodi:insensitive="true">
    <path
       style="display:inline;opacity:1;fill:url(#linearGradient1230);fill-opacity:1;stroke-width:4.28877306"
       d="M 0,-1e-5 H 132.08 V 128.5 H 0 Z"
       id="rect7953"
       inkscape:connector-curvature="0" />
  </g>
  <g
     inkscape:groupmode="layer"
     id="layer3"
     inkscape:label="components"
     style="display:none"
     sodipodi:insensitive="true">
    <g
       id="g2142"
       transform="translate(5.2249866)">
      <circle
         transform="rotate(71.973159)"
         inkscape:label="LOAD_PARAM+4,gui::PrismLargeButton"
         r="4.999825"
         cy="-86.90287"
         cx="79.916046"
         id="circle5454"
         style="display:inline;opacity:1;fill:#ff0000;fill-opacity:1;stroke:#ff0000;stroke-width:0.00035002;stroke-linecap:square;stroke-miterlimit:4;stroke-dasharray:none;stroke-opacity:1" />
      <circle
         transform="rotate(53.956561)"
         style="display:inline;opacity:1;fill:#ff0000;fill-opacity:1;stroke:#ff0000;stroke-width:0.00035002;stroke-linecap:square;stroke-miterlimit:4;stroke-dasharray:none;stroke-opacity:1"
         id="circle2054"
         cx="87.734154"
         cy="-60.344318"
         r="4.999825"
         inkscape:label="LOAD_PARAM+3,gui::PrismLargeButton" />
      <circle
         transform="rotate(35.956612)"
         inkscape:label="LOAD_PARAM+2,gui::PrismLargeButton"
         r="4.999825"
         cy="-32.700756"
         cx="86.953262"
         id="circle2056"
         style="display:inline;opacity:1;fill:#ff0000;fill-opacity:1;stroke:#ff0000;stroke-width:0.00035002;stroke-linecap:square;stroke-miterlimit:4;stroke-dasharray:none;stroke-opacity:1" />
      <circle
         transform="rotate(17.973194)"
         style="display:inline;opacity:1;fill:#ff0000;fill-opacity:1;stroke:#ff0000;stroke-width:0.00035002;stroke-linecap:square;stroke-miterlimit:4;stroke-dasharray:none;stroke-opacity:1"
         id="circle2058"
         cx="77.67305"
         cy="-6.6704373"
         r="4.999825"
         inkscape:label="LOAD_PARAM+1,gui::PrismLargeButton" />
      <circle
         inkscape:label="LOAD_PARAM+0,gui::PrismLargeButton"
         r="4.999825"
         cy="15.223267"
         cx="60.815014"
         id="circle2060"
         style="display:inline;opacity:1;fill:#ff0000;fill-opacity:1;stroke:#ff0000;stroke-width:0.00035002;stroke-linecap:square;stroke-miterlimit:4;stroke-dasharray:none;stroke-opacity:1" />
      <circle
         transform="rotate(-17.973189)"
         style="display:inline;opacity:1;fill:#ff0000;fill-opacity:1;stroke:#ff0000;stroke-width:0.00035002;stroke-linecap:square;stroke-miterlimit:4;stroke-dasharray:none;stroke-opacity:1"
         id="circle2062"
         cx="38.021557"
         cy="30.861181"
         r="4.999825"
         inkscape:label="LOAD_PARAM+19,gui::PrismLargeButton" />
      <circle
         transform="rotate(-35.956605)"
         inkscape:label="LOAD_PARAM+18,gui::PrismLargeButton"
         r="4.999825"
         cy="38.717049"
         cx="11.501616"
         id="circle2072"
         style="display:inline;opacity:1;fill:#ff0000;fill-opacity:1;stroke:#ff0000;stroke-width:0.00035002;stroke-linecap:square;stroke-miterlimit:4;stroke-dasharray:none;stroke-opacity:1" />
      <circle
         transform="rotate(-53.956558)"
         style="display:inline;opacity:1;fill:#ff0000;fill-opacity:1;stroke:#ff0000;stroke-width:0.00035002;stroke-linecap:square;stroke-miterlimit:4;stroke-dasharray:none;stroke-opacity:1"
         id="circle2074"
         cx="-16.167231"
         cy="38.002213"
         r="4.999825"
         inkscape:label="LOAD_PARAM+17,gui::PrismLargeButton" />
      <circle
         transform="rotate(-71.973139)"
         inkscape:label="LOAD_PARAM+16,gui::PrismLargeButton"
         r="4.999825"
         cy="28.756557"
         cx="-42.276081"
         id="circle2076"
         style="display:inline;opacity:1;fill:#ff0000;fill-opacity:1;stroke:#ff0000;stroke-width:0.00035002;stroke-linecap:square;stroke-miterlimit:4;stroke-dasharray:none;stroke-opacity:1" />
      <circle
         transform="rotate(-90.000003)"
         style="display:inline;opacity:1;fill:#ff0000;fill-opacity:1;stroke:#ff0000;stroke-width:0.00035002;stroke-linecap:square;stroke-miterlimit:4;stroke-dasharray:none;stroke-opacity:1"
         id="circle2078"
         cx="-64.25"
         cy="11.866342"
         r="4.999825"
         inkscape:label="LOAD_PARAM+15,gui::PrismLargeButton" />
      <circle
         transform="rotate(-108.02686)"
         r="4.999825"
         style="display:inline;opacity:1;fill:#ff0000;fill-opacity:1;stroke:#ff0000;stroke-width:0.00035002;stroke-linecap:square;stroke-miterlimit:4;stroke-dasharray:none;stroke-opacity:1"
         id="circle2086"
         cx="-79.916054"
         cy="-11.009415"
         inkscape:label="LOAD_PARAM+14,gui::PrismLargeButton" />
      <circle
         transform="rotate(-126.04344)"
         inkscape:label="LOAD_PARAM+13,gui::PrismLargeButton"
         r="4.999825"
         cy="-37.606991"
         cx="-87.734154"
         id="circle2088"
         style="display:inline;opacity:1;fill:#ff0000;fill-opacity:1;stroke:#ff0000;stroke-width:0.00035002;stroke-linecap:square;stroke-miterlimit:4;stroke-dasharray:none;stroke-opacity:1" />
      <circle
         transform="rotate(-54.0434)"
         style="display:inline;opacity:1;fill:#ff0000;fill-opacity:1;stroke:#ff0000;stroke-width:0.00035002;stroke-linecap:square;stroke-miterlimit:4;stroke-dasharray:none;stroke-opacity:1"
         id="circle2090"
         cx="-65.298813"
         cy="86.953262"
         r="4.999825"
         inkscape:label="LOAD_PARAM+12,gui::PrismLargeButton" />
      <ellipse
         ry="49.026737"
         rx="48.948669"
         cy="232.75"
         cx="60.815014"
         id="path2092"
         style="display:inline;opacity:1;fill:#db00e7;fill-opacity:0;stroke:none;stroke-width:0.30000001;stroke-linecap:round;stroke-linejoin:round;stroke-miterlimit:4;stroke-dasharray:none;stroke-opacity:0"
         transform="translate(0,-168.5)" />
      <circle
         transform="rotate(-162.02681)"
         inkscape:label="LOAD_PARAM+11,gui::PrismLargeButton"
         r="4.999825"
         cy="-91.368149"
         cx="-77.673042"
         id="circle2084"
         style="display:inline;opacity:1;fill:#ff0000;fill-opacity:1;stroke:#ff0000;stroke-width:0.00035002;stroke-linecap:square;stroke-miterlimit:4;stroke-dasharray:none;stroke-opacity:1" />
      <circle
         transform="scale(-1)"
         inkscape:label="LOAD_PARAM+10,gui::PrismLargeButton"
         r="4.999825"
         cy="-113.27673"
         cx="-60.815025"
         id="circle2068"
         style="display:inline;opacity:1;fill:#ff0000;fill-opacity:1;stroke:#ff0000;stroke-width:0.00035002;stroke-linecap:square;stroke-miterlimit:4;stroke-dasharray:none;stroke-opacity:1" />
      <circle
         transform="rotate(162.02681)"
         inkscape:label="LOAD_PARAM+9,gui::PrismLargeButton"
         r="4.999825"
         cy="-128.89975"
         cx="-38.021557"
         id="circle2080"
         style="display:inline;opacity:1;fill:#ff0000;fill-opacity:1;stroke:#ff0000;stroke-width:0.00035002;stroke-linecap:square;stroke-miterlimit:4;stroke-dasharray:none;stroke-opacity:1" />
      <circle
         transform="rotate(144.0434)"
         style="display:inline;opacity:1;fill:#ff0000;fill-opacity:1;stroke:#ff0000;stroke-width:0.00035002;stroke-linecap:square;stroke-miterlimit:4;stroke-dasharray:none;stroke-opacity:1"
         id="circle2082"
         cx="-11.50163"
         cy="-136.7166"
         r="4.999825"
         inkscape:label="LOAD_PARAM+8,gui::PrismLargeButton" />
      <circle
         transform="rotate(90.000003)"
         style="display:inline;opacity:1;fill:#ff0000;fill-opacity:1;stroke:#ff0000;stroke-width:0.00035002;stroke-linecap:square;stroke-miterlimit:4;stroke-dasharray:none;stroke-opacity:1"
         id="circle2070"
         cx="64.249992"
         cy="-109.76369"
         r="4.999825"
         inkscape:label="LOAD_PARAM+5,gui::PrismLargeButton" />
      <circle
         transform="rotate(126.04344)"
         style="display:inline;opacity:1;fill:#ff0000;fill-opacity:1;stroke:#ff0000;stroke-width:0.00035002;stroke-linecap:square;stroke-miterlimit:4;stroke-dasharray:none;stroke-opacity:1"
         id="circle2066"
         cx="16.167238"
         cy="-135.95352"
         r="4.999825"
         inkscape:label="LOAD_PARAM+7,gui::PrismLargeButton" />
      <circle
         transform="rotate(108.02686)"
         inkscape:label="LOAD_PARAM+6,gui::PrismLargeButton"
         r="4.999825"
         cy="-126.66882"
         cx="42.276089"
         id="circle2064"
         style="display:inline;opacity:1;fill:#ff0000;fill-opacity:1;stroke:#ff0000;stroke-width:0.00035002;stroke-linecap:square;stroke-miterlimit:4;stroke-dasharray:none;stroke-opacity:1" />
    </g>
  </g>
  <g
     inkscape:label="Design"
     inkscape:groupmode="layer"
     id="layer1"
     transform="translate(0,-168.5)"
     style="display:inline">
    <g
       style="font-style:normal;font-variant:normal;font-weight:900;font-stretch:condensed;font-size:4.23333311px;line-height:1.25;font-family:'DIN Pro';-inkscape-font-specification:'DIN Pro, Heavy Condensed';font-variant-ligatures:normal;font-variant-caps:normal;font-variant-numeric:normal;font-feature-settings:normal;text-align:start;letter-spacing:0px;word-spacing:0px;writing-mode:lr-tb;text-anchor:start;display:inline;fill:#daff9e;fill-opacity:1;stroke:none;stroke-width:0.26458332"
       id="text7593" />
    <g
       aria-label="RainbowIO"
       style="font-style:normal;font-variant:normal;font-weight:bold;font-stretch:condensed;font-size:9.87777805px;line-height:1.25;font-family:'Barlow Condensed';-inkscape-font-specification:'Barlow Condensed, Bold Condensed';font-variant-ligatures:normal;font-variant-caps:normal;font-variant-numeric:normal;font-feature-settings:normal;text-align:start;letter-spacing:0px;word-spacing:0px;writing-mode:lr-tb;text-anchor:start;display:inline;fill:#daff9e;fill-opacity:1;stroke:none;stroke-width:0.26458332"
       id="text7961">
      <path
         d="m 97.312477,177.01704 q -0.108655,0 -0.138288,-0.0988 L 96.4136,174.192 q -0.01976,-0.0395 -0.04939,-0.0395 h -0.335845 q -0.04939,0 -0.04939,0.0494 v 2.69663 q 0,0.0494 -0.03951,0.0889 -0.02963,0.0296 -0.07902,0.0296 h -1.1557 q -0.04939,0 -0.0889,-0.0296 -0.02963,-0.0395 -0.02963,-0.0889 v -6.67738 q 0,-0.0494 0.02963,-0.079 0.03951,-0.0395 0.0889,-0.0395 h 1.995311 q 0.543278,0 0.968022,0.2667 0.424745,0.25682 0.651934,0.73096 0.237066,0.47413 0.237066,1.08655 0,0.58279 -0.227188,1.02729 -0.217312,0.4445 -0.612423,0.69144 -0.01976,0.01 -0.02963,0.0296 -0.0099,0.01 0,0.0296 l 0.908756,2.91395 0.0099,0.0395 q 0,0.0988 -0.108655,0.0988 z m -1.284111,-5.71923 q -0.04939,0 -0.04939,0.0494 v 1.6891 q 0,0.0494 0.04939,0.0494 h 0.4445 q 0.306211,0 0.493889,-0.23707 0.197556,-0.24694 0.197556,-0.65193 0,-0.41487 -0.197556,-0.65193 -0.187678,-0.24695 -0.493889,-0.24695 z"
         style="font-style:normal;font-variant:normal;font-weight:bold;font-stretch:condensed;font-size:9.87777805px;font-family:'Barlow Condensed';-inkscape-font-specification:'Barlow Condensed, Bold Condensed';font-variant-ligatures:normal;font-variant-caps:normal;font-variant-numeric:normal;font-feature-settings:normal;text-align:start;writing-mode:lr-tb;text-anchor:start;fill:#daff9e;fill-opacity:1;stroke-width:0.26458332"
         id="path2145"
         inkscape:connector-curvature="0" />
      <path
         d="m 101.01371,171.86084 q 0.83961,0 1.36313,0.45438 0.52353,0.45438 0.52353,1.19521 v 3.38808 q 0,0.0494 -0.0395,0.0889 -0.0296,0.0296 -0.079,0.0296 h -1.1557 q -0.0494,0 -0.0889,-0.0296 -0.0296,-0.0395 -0.0296,-0.0889 v -0.21731 q 0,-0.0296 -0.0198,-0.0395 -0.0198,-0.01 -0.0395,0.0197 -0.32596,0.41487 -1.00753,0.43463 -0.572911,0 -0.997655,-0.31609 -0.414867,-0.31609 -0.414867,-1.20509 0,-0.91863 0.503767,-1.26436 0.513645,-0.34572 1.471785,-0.34572 h 0.45438 q 0.0494,0 0.0494,-0.0494 v -0.24694 q 0,-0.2667 -0.14817,-0.43462 -0.13829,-0.1778 -0.3556,-0.1778 -0.16792,0 -0.28645,0.10865 -0.10866,0.0988 -0.13829,0.28646 -0.01,0.11853 -0.12841,0.11853 l -1.185335,-0.01 q -0.118533,0 -0.118533,-0.11853 0.04939,-0.72108 0.563033,-1.14582 0.513645,-0.43463 1.303865,-0.43463 z m -0.0988,4.15855 q 0.22719,0 0.40499,-0.14817 0.18768,-0.15804 0.18768,-0.41486 v -0.46426 q 0,-0.0494 -0.0494,-0.0494 h -0.40499 q -0.2667,0 -0.43462,0.15805 -0.15804,0.14816 -0.15804,0.41486 0,0.24695 0.11853,0.37536 0.12841,0.12841 0.33584,0.12841 z"
         style="font-style:normal;font-variant:normal;font-weight:bold;font-stretch:condensed;font-size:9.87777805px;font-family:'Barlow Condensed';-inkscape-font-specification:'Barlow Condensed, Bold Condensed';font-variant-ligatures:normal;font-variant-caps:normal;font-variant-numeric:normal;font-feature-settings:normal;text-align:start;writing-mode:lr-tb;text-anchor:start;fill:#daff9e;fill-opacity:1;stroke-width:0.26458332"
         id="path2147"
         inkscape:connector-curvature="0" />
      <path
         d="m 104.27646,171.36696 q -0.33584,0 -0.56303,-0.21732 -0.21731,-0.22718 -0.21731,-0.56303 0,-0.34572 0.21731,-0.56303 0.21731,-0.21731 0.56303,-0.21731 0.34573,0 0.55316,0.21731 0.21731,0.21731 0.21731,0.56303 0,0.33585 -0.21731,0.56303 -0.21731,0.21732 -0.55316,0.21732 z m -0.56303,5.65008 q -0.0494,0 -0.0889,-0.0296 -0.0296,-0.0395 -0.0296,-0.0889 v -4.84011 q 0,-0.0494 0.0296,-0.079 0.0395,-0.0395 0.0889,-0.0395 h 1.1557 q 0.0494,0 0.079,0.0395 0.0395,0.0296 0.0395,0.079 v 4.84011 q 0,0.0494 -0.0395,0.0889 -0.0296,0.0296 -0.079,0.0296 z"
         style="font-style:normal;font-variant:normal;font-weight:bold;font-stretch:condensed;font-size:9.87777805px;font-family:'Barlow Condensed';-inkscape-font-specification:'Barlow Condensed, Bold Condensed';font-variant-ligatures:normal;font-variant-caps:normal;font-variant-numeric:normal;font-feature-settings:normal;text-align:start;writing-mode:lr-tb;text-anchor:start;fill:#daff9e;fill-opacity:1;stroke-width:0.26458332"
         id="path2149"
         inkscape:connector-curvature="0" />
      <path
         d="m 108.0967,171.86084 q 0.67168,0 1.00753,0.4445 0.33584,0.4445 0.33584,1.2446 v 3.34857 q 0,0.0494 -0.0395,0.0889 -0.0296,0.0296 -0.079,0.0296 h -1.1557 q -0.0494,0 -0.0889,-0.0296 -0.0296,-0.0395 -0.0296,-0.0889 v -3.23991 q 0,-0.28646 -0.11854,-0.4445 -0.10865,-0.15804 -0.32596,-0.15804 -0.22719,0 -0.3556,0.16792 -0.11854,0.15804 -0.11854,0.45438 v 3.22015 q 0,0.0494 -0.0395,0.0889 -0.0296,0.0296 -0.079,0.0296 h -1.1557 q -0.0494,0 -0.0889,-0.0296 -0.0296,-0.0395 -0.0296,-0.0889 v -4.84011 q 0,-0.0494 0.0296,-0.079 0.0395,-0.0395 0.0889,-0.0395 h 1.1557 q 0.0494,0 0.079,0.0395 0.0395,0.0296 0.0395,0.079 v 0.18768 q 0,0.0296 0.0198,0.0296 0.0296,0 0.0691,-0.0395 0.31609,-0.37536 0.87913,-0.37536 z"
         style="font-style:normal;font-variant:normal;font-weight:bold;font-stretch:condensed;font-size:9.87777805px;font-family:'Barlow Condensed';-inkscape-font-specification:'Barlow Condensed, Bold Condensed';font-variant-ligatures:normal;font-variant-caps:normal;font-variant-numeric:normal;font-feature-settings:normal;text-align:start;writing-mode:lr-tb;text-anchor:start;fill:#daff9e;fill-opacity:1;stroke-width:0.26458332"
         id="path2151"
         inkscape:connector-curvature="0" />
      <path
         d="m 112.49493,171.86084 q 0.67169,0 1.01741,0.43463 0.3556,0.42474 0.3556,1.22484 v 1.91629 q 0,0.78034 -0.34572,1.22484 -0.34572,0.43463 -1.02729,0.43463 -0.55316,0 -0.889,-0.37536 -0.0198,-0.0197 -0.0395,-0.01 -0.0198,0 -0.0198,0.0296 v 0.15804 q 0,0.0494 -0.0395,0.0889 -0.0296,0.0296 -0.079,0.0296 h -1.1557 q -0.0494,0 -0.0889,-0.0296 -0.0296,-0.0395 -0.0296,-0.0889 v -6.67738 q 0,-0.0494 0.0296,-0.079 0.0395,-0.0395 0.0889,-0.0395 h 1.1557 q 0.0494,0 0.079,0.0395 0.0395,0.0296 0.0395,0.079 v 2.00519 q 0,0.0198 0.0198,0.0198 0.0395,0 0.079,-0.0494 0.33585,-0.33585 0.84949,-0.33585 z m -0.0198,1.75825 q 0,-0.24695 -0.12841,-0.40499 -0.12841,-0.15804 -0.33584,-0.15804 -0.1778,0 -0.30621,0.11853 -0.12841,0.11853 -0.15805,0.31609 v 1.97555 q 0.0296,0.19756 0.15805,0.31609 0.12841,0.11854 0.30621,0.11854 0.20743,0 0.33584,-0.15805 0.12841,-0.15804 0.12841,-0.40499 z"
         style="font-style:normal;font-variant:normal;font-weight:bold;font-stretch:condensed;font-size:9.87777805px;font-family:'Barlow Condensed';-inkscape-font-specification:'Barlow Condensed, Bold Condensed';font-variant-ligatures:normal;font-variant-caps:normal;font-variant-numeric:normal;font-feature-settings:normal;text-align:start;writing-mode:lr-tb;text-anchor:start;fill:#daff9e;fill-opacity:1;stroke-width:0.26458332"
         id="path2153"
         inkscape:connector-curvature="0" />
      <path
         d="m 116.36023,177.09607 q -0.87912,0 -1.38289,-0.4445 -0.49389,-0.4445 -0.49389,-1.21497 v -1.91629 q 0,-0.75071 0.50377,-1.20509 0.50376,-0.45438 1.37301,-0.45438 0.87912,0 1.38289,0.45438 0.50376,0.45438 0.50376,1.20509 v 1.91629 q 0,0.77047 -0.50376,1.21497 -0.49389,0.4445 -1.38289,0.4445 z m 0,-1.20509 q 0.21731,0 0.3556,-0.15805 0.13829,-0.15804 0.13829,-0.40499 v -1.70885 q 0,-0.24695 -0.13829,-0.40499 -0.13829,-0.15804 -0.3556,-0.15804 -0.21731,0 -0.3556,0.15804 -0.12841,0.15804 -0.12841,0.40499 v 1.70885 q 0,0.24695 0.12841,0.40499 0.13829,0.15805 0.3556,0.15805 z"
         style="font-style:normal;font-variant:normal;font-weight:bold;font-stretch:condensed;font-size:9.87777805px;font-family:'Barlow Condensed';-inkscape-font-specification:'Barlow Condensed, Bold Condensed';font-variant-ligatures:normal;font-variant-caps:normal;font-variant-numeric:normal;font-feature-settings:normal;text-align:start;writing-mode:lr-tb;text-anchor:start;fill:#daff9e;fill-opacity:1;stroke-width:0.26458332"
         id="path2155"
         inkscape:connector-curvature="0" />
      <path
         d="m 119.73627,177.01704 q -0.10866,0 -0.12841,-0.10865 l -1.0668,-4.84999 v -0.0395 q 0,-0.0889 0.10865,-0.0889 h 1.09644 q 0.11853,0 0.12841,0.10865 l 0.42474,2.70652 q 0.01,0.0296 0.0296,0.0296 0.0198,0 0.0296,-0.0296 l 0.43462,-2.70652 q 0.01,-0.10865 0.12841,-0.10865 h 0.9779 q 0.11854,0 0.12841,0.10865 l 0.46426,2.71639 q 0.01,0.0296 0.0296,0.0296 0.0198,-0.01 0.0296,-0.0395 l 0.41486,-2.70652 q 0.01,-0.10865 0.12841,-0.10865 l 1.08656,0.0197 q 0.12841,0 0.0988,0.12842 l -1.05693,4.83023 q -0.0197,0.10865 -0.12841,0.10865 h -1.12606 q -0.11854,0 -0.12841,-0.10865 l -0.42475,-2.50896 q -0.01,-0.0296 -0.0296,-0.0296 -0.0198,0 -0.0296,0.0296 l -0.40498,2.50896 q -0.01,0.10865 -0.12842,0.10865 z"
         style="font-style:normal;font-variant:normal;font-weight:bold;font-stretch:condensed;font-size:9.87777805px;font-family:'Barlow Condensed';-inkscape-font-specification:'Barlow Condensed, Bold Condensed';font-variant-ligatures:normal;font-variant-caps:normal;font-variant-numeric:normal;font-feature-settings:normal;text-align:start;writing-mode:lr-tb;text-anchor:start;fill:#daff9e;fill-opacity:1;stroke-width:0.26458332"
         id="path2157"
         inkscape:connector-curvature="0" />
      <path
         d="m 124.99402,177.01704 q -0.0494,0 -0.0889,-0.0296 -0.0296,-0.0395 -0.0296,-0.0889 v -6.67738 q 0,-0.0494 0.0296,-0.079 0.0395,-0.0395 0.0889,-0.0395 h 1.1557 q 0.0494,0 0.079,0.0395 0.0395,0.0296 0.0395,0.079 v 6.67738 q 0,0.0494 -0.0395,0.0889 -0.0296,0.0296 -0.079,0.0296 z"
         style="font-style:normal;font-variant:normal;font-weight:bold;font-stretch:condensed;font-size:9.87777805px;font-family:'Barlow Condensed';-inkscape-font-specification:'Barlow Condensed, Bold Condensed';font-variant-ligatures:normal;font-variant-caps:normal;font-variant-numeric:normal;font-feature-settings:normal;text-align:start;writing-mode:lr-tb;text-anchor:start;fill:#daff9e;fill-opacity:1;stroke-width:0.26458332"
         id="path2159"
         inkscape:connector-curvature="0" />
      <path
         d="m 129.04854,177.09607 q -0.90875,0 -1.45203,-0.5334 -0.54328,-0.5334 -0.54328,-1.4224 v -3.16089 q 0,-0.889 0.54328,-1.4224 0.54328,-0.5334 1.45203,-0.5334 0.90876,0 1.45204,0.5334 0.55315,0.5334 0.55315,1.4224 v 3.16089 q 0,0.889 -0.55315,1.4224 -0.54328,0.5334 -1.45204,0.5334 z m 0,-1.19521 q 0.27658,0 0.4445,-0.18768 0.16793,-0.19756 0.16793,-0.51365 v -3.27942 q 0,-0.31609 -0.16793,-0.50377 -0.16792,-0.19755 -0.4445,-0.19755 -0.27657,0 -0.4445,0.19755 -0.15804,0.18768 -0.15804,0.50377 v 3.27942 q 0,0.31609 0.15804,0.51365 0.16793,0.18768 0.4445,0.18768 z"
         style="font-style:normal;font-variant:normal;font-weight:bold;font-stretch:condensed;font-size:9.87777805px;font-family:'Barlow Condensed';-inkscape-font-specification:'Barlow Condensed, Bold Condensed';font-variant-ligatures:normal;font-variant-caps:normal;font-variant-numeric:normal;font-feature-settings:normal;text-align:start;writing-mode:lr-tb;text-anchor:start;fill:#daff9e;fill-opacity:1;stroke-width:0.26458332"
         id="path2161"
         inkscape:connector-curvature="0" />
    </g>
  </g>
</svg>
