<?xml version="1.0" encoding="utf-8"?>
<!-- Generator: Adobe Illustrator 23.0.3, SVG Export Plug-In . SVG Version: 6.00 Build 0)  -->
<svg version="1.0" id="Layer_1" xmlns="http://www.w3.org/2000/svg" xmlns:xlink="http://www.w3.org/1999/xlink" x="0px" y="0px"
	 width="12.99999px" height="34.99994px" viewBox="0 0 12.99999 34.99994" enable-background="new 0 0 12.99999 34.99994"
	 xml:space="preserve">
<g id="SWITCHES">
	<g id="XMLID_77_">
		<g>
			<g>
				<g>
					<path fill="#494949" d="M0,6.49992v22.00003c0,3.58984,2.91014,6.49999,6.49999,6.49999H6.5
						c3.58984,0,6.49999-2.91014,6.49999-6.49999V6.49992c0-3.58984-2.91014-6.49999-6.49999-6.49999H6.49999
						C2.91014-0.00007,0,2.91007,0,6.49992z"/>
				</g>
			</g>
			<g>
				<g>
					<path d="M0.99999,6.49388v22.01197c0,3.03426,2.45975,5.49401,5.49402,5.49401h0.01197
						C9.54024,33.99986,12,31.54011,12,28.50585V6.49388c0-3.03426-2.45975-5.49402-5.49402-5.49402H6.49401
						C3.45975,0.99987,0.99999,3.45962,0.99999,6.49388z"/>
				</g>
			</g>
			<g id="layer1_93_" transform="translate(-123.97009,-95.35738)">
				<circle fill="#BABABA" cx="130.47009" cy="123.85725" r="5.5"/>
				<circle fill="#DFDFDF" cx="130.47009" cy="123.85725" r="4"/>
			</g>
		</g>
	</g>
</g>
</svg>
