<?xml version="1.0" encoding="utf-8"?>
<!-- Generator: Adobe Illustrator 23.0.3, SVG Export Plug-In . SVG Version: 6.00 Build 0)  -->
<svg version="1.0" id="Layer_1" xmlns="http://www.w3.org/2000/svg" xmlns:xlink="http://www.w3.org/1999/xlink" x="0px" y="0px"
	 width="12.99999px" height="23.99995px" viewBox="0 0 12.99999 23.99995" enable-background="new 0 0 12.99999 23.99995"
	 xml:space="preserve">
<g id="SWITCHES">
	<g id="XMLID_76_">
		<g>
			<g>
				<g>
					<path fill="#494949" d="M0,6.49993v11.00002c0,3.58984,2.91014,6.49999,6.49999,6.49999H6.5
						c3.58984,0,6.49999-2.91014,6.49999-6.49999V6.49993c0-3.58984-2.91014-6.49999-6.49999-6.49999H6.49999
						C2.91014-0.00006,0,2.91009,0,6.49993z"/>
				</g>
			</g>
			<g>
				<g>
					<path d="M6.49999,23.49999c-3.30859,0-6-2.69141-6-6v-11c0-3.30859,2.69141-6,6-6s6,2.69141,6,6v11
						C12.49999,20.80858,9.80859,23.49999,6.49999,23.49999z"/>
					<path fill="#494949" d="M6.49999,0.99989c3.0376,0,5.5,2.46243,5.5,5.49999V17.4999c0,3.03756-2.4624,5.49999-5.5,5.49999
						s-5.5-2.46243-5.5-5.49999V6.49988C0.99999,3.46232,3.4624,0.99989,6.49999,0.99989 M6.49999-0.00011
						c-3.58411,0-6.5,2.91588-6.5,6.49999V17.4999c0,3.58411,2.91589,6.49999,6.5,6.49999s6.5-2.91588,6.5-6.49999V6.49988
						C12.99999,2.91577,10.0841-0.00011,6.49999-0.00011L6.49999-0.00011z"/>
				</g>
			</g>
			<g id="layer1_104_" transform="translate(-123.97009,-95.35738)">
				<circle fill="#BABABA" cx="130.47009" cy="101.85732" r="5.5"/>
				<circle fill="#DFDFDF" cx="130.47009" cy="101.85732" r="4"/>
			</g>
		</g>
	</g>
</g>
</svg>
