<?xml version="1.0" encoding="utf-8"?>
<!-- Generator: Adobe Illustrator 23.0.3, SVG Export Plug-In . SVG Version: 6.00 Build 0)  -->
<svg version="1.0" id="Layer_1" xmlns="http://www.w3.org/2000/svg" xmlns:xlink="http://www.w3.org/1999/xlink" x="0px" y="0px"
	 width="34px" height="34px" viewBox="0 0 34 34" enable-background="new 0 0 34 34" xml:space="preserve">
<g id="KNOBS">
	<g id="XMLID_64_">
		<g id="layer1_2_" transform="translate(-127.95617,-62.862058)">
			<path id="path110590_4_" fill="#478965" d="M161.95616,79.86205c0,9.38542-7.6109,17-17.00002,17
				c-9.38908,0-16.99998-7.61458-16.99998-17c0-9.38912,7.61089-17,16.99998-17
				C154.34526,62.86205,161.95616,70.47295,161.95616,79.86205"/>
			<path id="path110590_3_" fill="#57A37B" d="M159.31172,79.86205c0,7.92547-6.42699,14.35556-14.35556,14.35556
				c-7.92856,0-14.35556-6.43009-14.35556-14.35556c0-7.92859,6.42699-14.35556,14.35556-14.35556
				C152.88474,65.5065,159.31172,71.93346,159.31172,79.86205"/>
			<path fill-rule="evenodd" clip-rule="evenodd" fill="#DFDFDF" d="M144.9785,75.0499h-0.04466
				c-0.80907,0-1.46495-0.65588-1.46495-1.46494v-4.91962c0-0.80907,0.65587-1.46495,1.46495-1.46495h0.04466
				c0.80905,0,1.46494,0.65588,1.46494,1.46495v4.91962C146.44344,74.39402,145.78755,75.0499,144.9785,75.0499z"/>
		</g>
	</g>
</g>
</svg>
