<?xml version="1.0" encoding="utf-8"?>
<!-- Generator: Adobe Illustrator 23.0.3, SVG Export Plug-In . SVG Version: 6.00 Build 0)  -->
<svg version="1.0" id="Layer_1" xmlns="http://www.w3.org/2000/svg" xmlns:xlink="http://www.w3.org/1999/xlink" x="0px" y="0px"
	 width="22px" height="22px" viewBox="0 0 22 22" enable-background="new 0 0 22 22" xml:space="preserve">
<g id="KNOBS">
	<g>
		<g id="layer1_2_" transform="translate(-168.09312,-67.39659)">
			<path id="path110598_4_" fill="#161616" d="M190.09312,78.39848c0,6.0751-4.92294,10.99811-10.99808,10.99811
				c-6.07515,0-11.00192-4.92299-11.00192-10.99811c0-6.0789,4.92677-11.00189,11.00192-11.00189
				C185.17014,67.39658,190.09312,72.31958,190.09312,78.39848"/>
			<path id="path110598_3_" fill="#1E1E1E" d="M188.08868,78.39814c0,4.96809-4.02588,8.99402-8.99399,8.99402
				c-4.96812,0-8.99713-4.02592-8.99713-8.99402c0-4.97119,4.02901-8.99711,8.99713-8.99711
				C184.06277,69.40102,188.08868,73.42694,188.08868,78.39814"/>
			<path fill-rule="evenodd" clip-rule="evenodd" fill="#DFDFDF" d="M179.11562,78.39658h-0.04466
				c-0.80907,0-1.46495-0.65588-1.46495-1.46495v-4.91961c0-0.80907,0.65588-1.46495,1.46495-1.46495h0.04466
				c0.80907,0,1.46495,0.65588,1.46495,1.46495v4.91961C180.58057,77.7407,179.92468,78.39658,179.11562,78.39658z"/>
		</g>
	</g>
</g>
</svg>
